<svg width="19" height="12" viewBox="0 0 19 12" fill="none" xmlns="http://www.w3.org/2000/svg">
<path d="M16.2913 1.88407C15.8916 1.6038 15.4169 1.38146 14.8944 1.22977C14.372 1.07808 13.812 1 13.2465 1C12.681 1 12.121 1.07808 11.5986 1.22977C11.0761 1.38146 10.6015 1.6038 10.2017 1.88407L9.37198 2.46547L8.54228 1.88407C7.73474 1.3182 6.63948 1.00029 5.49745 1.00029C4.35541 1.00029 3.26016 1.3182 2.45262 1.88407C1.64508 2.44995 1.19141 3.21744 1.19141 4.0177C1.19141 4.81797 1.64508 5.58546 2.45262 6.15134L3.28231 6.73274L9.37198 11L15.4616 6.73274L16.2913 6.15134C16.6913 5.87119 17.0086 5.53857 17.2251 5.17247C17.4415 4.80638 17.553 4.41398 17.553 4.0177C17.553 3.62143 17.4415 3.22903 17.2251 2.86293C17.0086 2.49684 16.6913 2.16422 16.2913 1.88407V1.88407Z" stroke="black" stroke-width="1.09698" stroke-linecap="round" stroke-linejoin="round"/>
</svg>
