<svg width="24" height="24" viewBox="0 0 24 24" fill="none" xmlns="http://www.w3.org/2000/svg">
<g clip-path="url(#clip0_207_1692)">
<path d="M12.0037 7.95703C9.73225 7.95703 7.90011 9.76054 7.90011 11.9965C7.90011 14.2324 9.73225 16.0359 12.0037 16.0359C14.2751 16.0359 16.1073 14.2324 16.1073 11.9965C16.1073 9.76054 14.2751 7.95703 12.0037 7.95703ZM12.0037 14.6227C10.5358 14.6227 9.33583 13.4449 9.33583 11.9965C9.33583 10.548 10.5323 9.37031 12.0037 9.37031C13.4751 9.37031 14.6715 10.548 14.6715 11.9965C14.6715 13.4449 13.4715 14.6227 12.0037 14.6227ZM17.2322 7.7918C17.2322 8.31562 16.8037 8.73398 16.2751 8.73398C15.743 8.73398 15.318 8.31211 15.318 7.7918C15.318 7.27148 15.7465 6.84961 16.2751 6.84961C16.8037 6.84961 17.2322 7.27148 17.2322 7.7918ZM19.9501 8.74804C19.8894 7.48594 19.5965 6.36797 18.6572 5.44687C17.7215 4.52578 16.5858 4.2375 15.3037 4.17422C13.9823 4.10039 10.0215 4.10039 8.70011 4.17422C7.42154 4.23398 6.28583 4.52227 5.34654 5.44336C4.40726 6.36445 4.11797 7.48242 4.05369 8.74453C3.97869 10.0453 3.97869 13.9441 4.05369 15.2449C4.1144 16.507 4.40726 17.625 5.34654 18.5461C6.28583 19.4672 7.41797 19.7555 8.70011 19.8187C10.0215 19.8926 13.9823 19.8926 15.3037 19.8187C16.5858 19.759 17.7215 19.4707 18.6572 18.5461C19.593 17.625 19.8858 16.507 19.9501 15.2449C20.0251 13.9441 20.0251 10.0488 19.9501 8.74804ZM18.243 16.6406C17.9644 17.3297 17.4251 17.8605 16.7215 18.1383C15.668 18.5496 13.168 18.4547 12.0037 18.4547C10.8394 18.4547 8.33583 18.5461 7.28583 18.1383C6.58583 17.8641 6.04654 17.3332 5.7644 16.6406C5.34654 15.6035 5.44297 13.1426 5.44297 11.9965C5.44297 10.8504 5.35011 8.38594 5.7644 7.35234C6.04297 6.66328 6.58226 6.13242 7.28583 5.85469C8.3394 5.44336 10.8394 5.53828 12.0037 5.53828C13.168 5.53828 15.6715 5.44687 16.7215 5.85469C17.4215 6.12891 17.9608 6.65976 18.243 7.35234C18.6608 8.38945 18.5644 10.8504 18.5644 11.9965C18.5644 13.1426 18.6608 15.607 18.243 16.6406Z" fill="white"/>
</g>
<defs>
<clipPath id="clip0_207_1692">
<rect width="16" height="18" fill="white" transform="translate(4.00012 3)"/>
</clipPath>
</defs>
</svg>
