<svg width="20" height="15" viewBox="0 0 20 15" fill="none" xmlns="http://www.w3.org/2000/svg">
<path d="M16.8859 2.76872C15.4547 1.7628 13.5991 1.10678 11.5941 0.8979C9.58913 0.689022 7.54145 0.938401 5.7546 1.60907C3.96775 2.27975 2.53684 3.33602 1.67396 4.62132C0.811089 5.90662 0.56218 7.35253 0.96413 8.74475C1.36608 10.137 2.39749 11.4014 3.90549 12.3506C5.41349 13.2997 7.3178 13.8832 9.33617 14.0144C11.3545 14.1456 13.3795 13.8176 15.111 13.079C16.8424 12.3404 18.1882 11.2306 18.9488 9.91394H16.3318C15.6032 10.8157 14.4895 11.5348 13.1474 11.97C11.8053 12.4053 10.3023 12.5347 8.84972 12.3403C7.39713 12.1458 6.06807 11.6372 5.04944 10.8859C4.03081 10.1347 3.37386 9.17856 3.17097 8.15207C2.96808 7.12558 3.22946 6.08034 3.91835 5.16335C4.60724 4.24637 5.68899 3.50376 7.01147 3.03996C8.33394 2.57617 9.83062 2.41452 11.291 2.57775C12.7514 2.74098 14.1021 3.22088 15.153 3.94995L11.4044 6.60979H19.6561V0.82753L16.8859 2.76872Z" fill="#8D8D8D"/>
</svg>
