<svg width="17" height="13" viewBox="0 0 17 13" fill="none" xmlns="http://www.w3.org/2000/svg">
<path d="M15.6742 1.87497V12.1937H3.78056C3.32993 12.1937 2.89776 12.0683 2.57912 11.845C2.26047 11.6217 2.08146 11.3189 2.08146 11.0031C2.08146 10.6873 2.26047 10.3845 2.57912 10.1612C2.89776 9.93791 3.32993 9.81247 3.78056 9.81247H14.5415V0.287476H3.21419C1.96819 0.287476 0.94873 1.00185 0.94873 1.87497V11.4C0.94873 12.2731 1.96819 12.9875 3.21419 12.9875H16.807V1.87497H15.6742Z" fill="white"/>
<path d="M3.78137 10.6062H3.78023C3.63002 10.6062 3.48597 10.648 3.37975 10.7224C3.27354 10.7969 3.21387 10.8978 3.21387 11.0031C3.21387 11.1083 3.27354 11.2093 3.37975 11.2837C3.48597 11.3581 3.63002 11.4 3.78023 11.4H14.5401V10.6062H3.78137Z" fill="white"/>
</svg>
