<svg width="11" height="6" viewBox="0 0 11 6" fill="none" xmlns="http://www.w3.org/2000/svg">
<path d="M5.06819 5.25C5.06819 5.25 4.44385 5.25 4.44385 4.8125C4.44385 4.375 5.06819 3.0625 7.56555 3.0625C10.0629 3.0625 10.6873 4.375 10.6873 4.8125C10.6873 5.25 10.0629 5.25 10.0629 5.25H5.06819ZM7.56555 2.625C8.06231 2.625 8.53872 2.48672 8.88998 2.24058C9.24124 1.99444 9.43858 1.6606 9.43858 1.3125C9.43858 0.964403 9.24124 0.630564 8.88998 0.384422C8.53872 0.138281 8.06231 0 7.56555 0C7.0688 0 6.59239 0.138281 6.24112 0.384422C5.88987 0.630564 5.69253 0.964403 5.69253 1.3125C5.69253 1.6606 5.88987 1.99444 6.24112 2.24058C6.59239 2.48672 7.0688 2.625 7.56555 2.625Z" fill="#878787"/>
<path fill-rule="evenodd" clip-rule="evenodd" d="M3.95432 5.24994C3.86176 5.11336 3.8156 4.96362 3.81946 4.81244C3.81946 4.21963 4.24401 3.60932 5.02818 3.18494C4.63678 3.10043 4.22899 3.05911 3.81946 3.06244C1.32209 3.06244 0.697754 4.37494 0.697754 4.81244C0.697754 5.24994 1.32209 5.24994 1.32209 5.24994H3.95432Z" fill="#878787"/>
<path d="M3.50714 2.625C3.92111 2.625 4.31811 2.50977 4.61083 2.30465C4.90355 2.09953 5.06799 1.82133 5.06799 1.53125C5.06799 1.24117 4.90355 0.96297 4.61083 0.757852C4.31811 0.552734 3.92111 0.4375 3.50714 0.4375C3.09318 0.4375 2.69617 0.552734 2.40345 0.757852C2.11074 0.96297 1.94629 1.24117 1.94629 1.53125C1.94629 1.82133 2.11074 2.09953 2.40345 2.30465C2.69617 2.50977 3.09318 2.625 3.50714 2.625Z" fill="#878787"/>
</svg>
