<svg width="41" height="49" viewBox="0 0 41 49" fill="none" xmlns="http://www.w3.org/2000/svg">
<path d="M20.5 1.74741L38.0758 12.25L20.4995 22.7529L5.97567 14.0857L4.55761 13.2394L4.5582 13.2187L3.80152 12.7681L2.92788 12.2478L20.5 1.74741ZM3.59283 47.5L4.10114 29.4494L4.60734 47.5H3.59283ZM21.2699 28.8498L31.2568 22.8767C32.0476 24.7601 32.6475 26.8677 32.992 29.1271C32.9283 29.1257 32.8643 29.125 32.8 29.125C27.6518 29.125 23.3051 32.5829 20.503 37.5815C19.331 35.4831 17.8959 33.6779 16.2443 32.2757C13.8576 30.2493 11.0856 29.1258 8.20044 29.125H8.2C8.13567 29.125 8.07167 29.1257 8.00803 29.1271C8.35249 26.8677 8.95237 24.7601 9.74323 22.8767L19.7301 28.8498L20.5 29.3103L21.2699 28.8498ZM20.5 7.6875C19.6495 7.6875 18.8154 7.93954 18.1585 8.42684C17.4982 8.91664 16.95 9.71041 16.95 10.7188C16.95 11.7271 17.4982 12.5209 18.1585 13.0107C18.8154 13.498 19.6495 13.75 20.5 13.75C21.3505 13.75 22.1846 13.498 22.8415 13.0107C23.5018 12.5209 24.05 11.7271 24.05 10.7188C24.05 9.71041 23.5018 8.91664 22.8415 8.42684C22.1846 7.93954 21.3505 7.6875 20.5 7.6875Z" stroke="#001833" stroke-width="3"/>
</svg>
