<svg width="24" height="24" viewBox="0 0 24 24" fill="none" xmlns="http://www.w3.org/2000/svg">
<g clip-path="url(#clip0_207_1700)">
<path d="M20.9998 6.70478C20.3258 6.98926 19.6108 7.17598 18.8788 7.25876C19.6413 6.82335 20.2268 6.13387 20.5025 5.31235C19.7776 5.72216 18.9845 6.0109 18.1575 6.16609C17.4838 5.48236 16.5241 5.05506 15.4619 5.05506C13.4224 5.05506 11.7689 6.6303 11.7689 8.57315C11.7689 8.84893 11.8016 9.1174 11.8645 9.37496C8.79539 9.2282 6.0743 7.8276 4.25286 5.69906C3.93504 6.21867 3.75293 6.82308 3.75293 7.46775C3.75293 8.68836 4.40494 9.76516 5.39579 10.3961C4.80934 10.3786 4.2358 10.2277 3.72305 9.956C3.72284 9.97073 3.72284 9.98547 3.72284 10.0003C3.72284 11.7049 4.99578 13.1268 6.68511 13.45C6.1413 13.5909 5.57088 13.6116 5.01743 13.5103C5.48733 14.908 6.85118 15.9252 8.46711 15.9536C7.20324 16.8972 5.61087 17.4597 3.88076 17.4597C3.58264 17.4597 3.28873 17.443 2.99982 17.4105C4.63409 18.4087 6.57521 18.9912 8.66068 18.9912C15.4534 18.9912 19.1678 13.6302 19.1678 8.98116C19.1678 8.82856 19.1642 8.67684 19.1571 8.52599C19.88 8.02807 20.5041 7.41136 20.9998 6.70478Z" fill="white"/>
</g>
<defs>
<clipPath id="clip0_207_1700">
<rect width="18" height="14" fill="white" transform="translate(2.99982 5)"/>
</clipPath>
</defs>
</svg>
